<svg width="109" height="126" version="1.1" xmlns="http://www.w3.org/2000/svg" desc="Created with imagetracer.js version 1.2.6" ><path fill="rgb(41,36,37)" stroke="rgb(41,36,37)" stroke-width="1" opacity="0.9411764705882353" d="M 57.5 12 L 62 12.5 L 59 13.5 L 61 14 L 62 19.5 L 62 28.5 Q 60.8 31.3 55.5 30 L 51 27.5 L 49.5 24 L 45.5 25 L 42.5 24 L 40 29 L 34 27.5 L 36.5 27 Q 37.8 29.3 39 26.5 L 38 24.5 L 39 22.5 L 37 16 Q 34 17 35 14 L 51 15 Q 49.6 11 56.5 13 L 57.5 12 Z " /><path fill="rgb(41,36,37)" stroke="rgb(41,36,37)" stroke-width="1" opacity="0.9411764705882353" d="M 84.5 28 L 87 29.5 L 83.5 32 L 83 29.5 L 84.5 28 Z " /><path fill="rgb(41,36,37)" stroke="rgb(41,36,37)" stroke-width="1" opacity="0.9411764705882353" d="M 19.5 31 L 20 33.5 L 19 33.5 L 19.5 31 Z " /><path fill="rgb(41,36,37)" stroke="rgb(41,36,37)" stroke-width="1" opacity="0.9411764705882353" d="M 91.5 41 L 97 42.5 Q 96 45 91.5 44 L 91.5 41 Z " /><path fill="rgb(41,36,37)" stroke="rgb(41,36,37)" stroke-width="1" opacity="0.9411764705882353" d="M 30.5 47 L 38 47.5 L 30.5 48 L 30.5 47 Z " /><path fill="rgb(41,36,37)" stroke="rgb(41,36,37)" stroke-width="1" opacity="0.9411764705882353" d="M 54.5 47 L 61 47.5 L 54.5 48 L 54.5 47 Z " /><path fill="rgb(41,36,37)" stroke="rgb(41,36,37)" stroke-width="1" opacity="0.9411764705882353" d="M 10.5 49 L 13 49.5 L 10.5 50 L 10.5 49 Z " /><path fill="rgb(41,36,37)" stroke="rgb(41,36,37)" stroke-width="1" opacity="0.9411764705882353" d="M 65.5 55 L 67 59.5 L 66 59.5 Q 67.1 56.2 64.5 57 Q 60.5 58.7 62 65 Q 59.2 62 52 62.5 L 59.5 62 L 61 62.5 L 61 59.5 L 65.5 55 Z " /><path fill="rgb(41,36,37)" stroke="rgb(41,36,37)" stroke-width="1" opacity="0.9411764705882353" d="M 75.5 59 L 79 59.5 L 75.5 60 L 75.5 59 Z " /><path fill="rgb(41,36,37)" stroke="rgb(41,36,37)" stroke-width="1" opacity="0.9411764705882353" d="M 21.5 62 L 24 62.5 L 20.5 64 L 21.5 62 Z " /><path fill="rgb(41,36,37)" stroke="rgb(41,36,37)" stroke-width="1" opacity="0.9411764705882353" d="M 67.5 64 L 68 66.5 L 67 66.5 L 67.5 64 Z " /><path fill="rgb(41,36,37)" stroke="rgb(41,36,37)" stroke-width="1" opacity="0.9411764705882353" d="M 28.5 65 L 29 67.5 L 28 67.5 L 28.5 65 Z " /><path fill="rgb(41,36,37)" stroke="rgb(41,36,37)" stroke-width="1" opacity="0.9411764705882353" d="M 27.5 69 L 26.5 71 L 25 70.5 L 27.5 69 Z " /><path fill="rgb(41,36,37)" stroke="rgb(41,36,37)" stroke-width="1" opacity="0.9411764705882353" d="M 20.5 70 L 23 71.5 L 21.5 72 L 20.5 70 Z " /><path fill="rgb(41,36,37)" stroke="rgb(41,36,37)" stroke-width="1" opacity="0.9411764705882353" d="M 69.5 70 L 70.5 72 L 69.5 70 Z " /><path fill="rgb(41,36,37)" stroke="rgb(41,36,37)" stroke-width="1" opacity="0.9411764705882353" d="M 55.5 71 L 60 71.5 L 55.5 72 L 55.5 71 Z " /><path fill="rgb(41,36,37)" stroke="rgb(41,36,37)" stroke-width="1" opacity="0.9411764705882353" d="M 42.5 72 L 43 74 L 45 74.5 L 43.5 75 L 42.5 72 Z " /><path fill="rgb(41,36,37)" stroke="rgb(41,36,37)" stroke-width="1" opacity="0.9411764705882353" d="M 13.5 73 L 21 73.5 L 13.5 74 L 13.5 73 Z " /><path fill="rgb(41,36,37)" stroke="rgb(41,36,37)" stroke-width="1" opacity="0.9411764705882353" d="M 58.5 95 L 59 97 Q 54.3 96 53 99.5 Q 54 103.3 51 102 L 51 96 L 57.5 96 L 58.5 95 Z " /><path fill="rgb(41,36,37)" stroke="rgb(41,36,37)" stroke-width="1" opacity="0.9411764705882353" d="M 39.5 99 L 40 101.5 L 39 101.5 L 39.5 99 Z " /><path fill="rgb(41,36,37)" stroke="rgb(41,36,37)" stroke-width="1" opacity="0.9411764705882353" d="M 76.5 99 L 78 99.5 L 75.5 101 L 76.5 99 Z " /><path fill="rgb(41,36,37)" stroke="rgb(41,36,37)" stroke-width="1" opacity="0.9411764705882353" d="M 78.5 103 L 79 105.5 L 78 105.5 L 78.5 103 Z " /><path fill="rgb(41,36,37)" stroke="rgb(41,36,37)" stroke-width="1" opacity="0.9411764705882353" d="M 63.5 110 L 64 113.5 L 63 113.5 L 63.5 110 Z " /><path fill="rgb(16,21,27)" stroke="rgb(16,21,27)" stroke-width="1" opacity="0.9607843137254902" d="M 62.5 12 L 65 12.5 L 62.5 13 L 62.5 12 Z " /><path fill="rgb(16,21,27)" stroke="rgb(16,21,27)" stroke-width="1" opacity="0.9607843137254902" d="M 46.5 13 Q 52.4 11.3 51 15 L 41 14.5 L 46.5 13 Z " /><path fill="rgb(16,21,27)" stroke="rgb(16,21,27)" stroke-width="1" opacity="0.9607843137254902" d="M 59.5 13 L 63 14 L 64 27 Q 66.7 25.9 66 28.5 L 67 31 Q 72.2 28.9 71 33.5 L 73 37.5 L 71.5 39 L 64 39 Q 65.3 36 61.5 37 L 60 33 L 56.5 32 Q 55 34.5 53.5 31 L 48.5 29 L 40.5 29 L 37.5 30 L 37.5 29 Q 40.8 30.1 40 27.5 L 42.5 24 L 47.5 25 L 49.5 24 L 52.5 29 L 60.5 30 L 62 28.5 L 62 19.5 L 61 14 L 59.5 13 Z " /><path fill="rgb(16,21,27)" stroke="rgb(16,21,27)" stroke-width="1" opacity="0.9607843137254902" d="M 66.5 13 Q 68.8 12.3 68 14.5 L 67 18.5 L 69 19.5 L 69.5 18 L 70 24 Q 67.3 25.1 68 22.5 L 65 14.5 L 66.5 13 Z " /><path fill="rgb(16,21,27)" stroke="rgb(16,21,27)" stroke-width="1" opacity="0.9607843137254902" d="M 80.5 26 L 84 27 L 83 31.5 L 85.5 30 L 87.5 29 L 88 38.5 L 87 38.5 Q 88.1 35.2 85.5 36 L 82 33.5 L 83 28.5 L 80.5 26 Z " /><path fill="rgb(16,21,27)" stroke="rgb(16,21,27)" stroke-width="1" opacity="0.9607843137254902" d="M 90.5 41 L 91.5 44 Q 96.5 45 97.5 42 L 99 45.5 L 97 49 L 93.5 48 Q 91.8 51.8 90 48.5 Q 89.3 46.3 91.5 47 L 91.5 46 Q 88.6 46.4 90.5 41 Z " /><path fill="rgb(16,21,27)" stroke="rgb(16,21,27)" stroke-width="1" opacity="0.9607843137254902" d="M 97.5 50 L 98 52.5 L 97 52.5 L 97.5 50 Z " /><path fill="rgb(16,21,27)" stroke="rgb(16,21,27)" stroke-width="1" opacity="0.9607843137254902" d="M 64.5 55 L 62.5 58 L 64.5 55 Z " /><path fill="rgb(16,21,27)" stroke="rgb(16,21,27)" stroke-width="1" opacity="0.9607843137254902" d="M 11 57 L 14 57.5 L 11.5 59 L 11 57 Z " /><path fill="rgb(16,21,27)" stroke="rgb(16,21,27)" stroke-width="1" opacity="0.9607843137254902" d="M 67.5 61 L 68 63.5 L 67 63.5 L 67.5 61 Z " /><path fill="rgb(16,21,27)" stroke="rgb(16,21,27)" stroke-width="1" opacity="0.9607843137254902" d="M 84.5 77 L 85 79.5 L 84 79.5 L 84.5 77 Z " /><path fill="rgb(16,21,27)" stroke="rgb(16,21,27)" stroke-width="1" opacity="0.9607843137254902" d="M 34.5 114 L 45 114.5 L 34.5 115 L 34.5 114 Z " /><path fill="rgb(12,12,13)" stroke="rgb(12,12,13)" stroke-width="1" opacity="0.11764705882352941" d="M 50.5 11 L 55 11.5 L 50.5 12 L 50.5 11 Z " /><path fill="rgb(12,12,13)" stroke="rgb(12,12,13)" stroke-width="1" opacity="0.11764705882352941" d="M 70.5 11 L 74 13.5 L 73.5 16 L 73 13 Q 68.5 14.3 70.5 11 Z " /><path fill="rgb(12,12,13)" stroke="rgb(12,12,13)" stroke-width="1" opacity="0.11764705882352941" d="M 40.5 12 L 45 12.5 L 40.5 13 L 40.5 12 Z " /><path fill="rgb(12,12,13)" stroke="rgb(12,12,13)" stroke-width="1" opacity="0.11764705882352941" d="M 35.5 13 L 34.5 15 L 32 14.5 L 35.5 13 Z " /><path fill="rgb(12,12,13)" stroke="rgb(12,12,13)" stroke-width="1" opacity="0.11764705882352941" d="M 20 25 L 22 25.5 L 20 26.5 L 20 25 Z " /><path fill="rgb(12,12,13)" stroke="rgb(12,12,13)" stroke-width="1" opacity="0.11764705882352941" d="M 82.5 25 L 89 29.5 L 90 31.5 L 88 30.5 Q 88.8 28.3 86.5 29 L 82.5 25 Z " /><path fill="rgb(12,12,13)" stroke="rgb(12,12,13)" stroke-width="1" opacity="0.11764705882352941" d="M 18 28 L 20 28.5 L 18.5 31 L 18 28 Z " /><path fill="rgb(12,12,13)" stroke="rgb(12,12,13)" stroke-width="1" opacity="0.11764705882352941" d="M 95.5 41 Q 100.3 39.3 99 43.5 L 101 47.5 L 101 71.5 L 98.5 75 L 97 74.5 L 100 69.5 L 99 68.5 L 99 45.5 L 98 42 Q 94.7 42.8 95.5 41 Z " /><path fill="rgb(12,12,13)" stroke="rgb(12,12,13)" stroke-width="1" opacity="0.11764705882352941" d="M 10.5 57 L 11 68.5 L 10 68.5 L 10.5 57 Z " /><path fill="rgb(12,12,13)" stroke="rgb(12,12,13)" stroke-width="1" opacity="0.11764705882352941" d="M 10.5 73 Q 12.8 72.3 12 74.5 L 10.5 73 Z " /><path fill="rgb(12,12,13)" stroke="rgb(12,12,13)" stroke-width="1" opacity="0.11764705882352941" d="M 90.5 73 L 93 73.5 L 90.5 74 L 90.5 73 Z " /><path fill="rgb(12,12,13)" stroke="rgb(12,12,13)" stroke-width="1" opacity="0.11764705882352941" d="M 86.5 77 L 87 79.5 L 82.5 84 L 78.5 85 L 79.5 83 L 86 78.5 L 86.5 77 Z " /><path fill="rgb(12,12,13)" stroke="rgb(12,12,13)" stroke-width="1" opacity="0.11764705882352941" d="M 20.5 84 L 22 86.5 L 21 86.5 L 20.5 84 Z " /><path fill="rgb(12,12,13)" stroke="rgb(12,12,13)" stroke-width="1" opacity="0.11764705882352941" d="M 75.5 89 L 76 93.5 L 75 93.5 L 75.5 89 Z " /><path fill="rgb(12,12,13)" stroke="rgb(12,12,13)" stroke-width="1" opacity="0.11764705882352941" d="M 78.5 98 L 80 104.5 L 79 104.5 L 78.5 98 Z " /><path fill="rgb(12,12,13)" stroke="rgb(12,12,13)" stroke-width="1" opacity="0.11764705882352941" d="M 32.5 102 L 36 102.5 L 32.5 103 L 32.5 102 Z " /><path fill="rgb(12,12,13)" stroke="rgb(12,12,13)" stroke-width="1" opacity="0.11764705882352941" d="M 81.5 104 L 86 104.5 L 81.5 105 L 81.5 104 Z " /><path fill="rgb(12,12,13)" stroke="rgb(12,12,13)" stroke-width="1" opacity="0.11764705882352941" d="M 30.5 106 L 32 114 L 42 115.5 L 34.5 116 L 30 112.5 L 30.5 106 Z " /><path fill="rgb(12,12,13)" stroke="rgb(12,12,13)" stroke-width="1" opacity="0.11764705882352941" d="M 89.5 109 L 90 112.5 L 88 113.5 L 89.5 109 Z " /><path fill="rgb(12,12,13)" stroke="rgb(12,12,13)" stroke-width="1" opacity="0.11764705882352941" d="M 75.5 114 L 80 114.5 L 75.5 115 L 75.5 114 Z " /><path fill="rgb(0,0,0)" stroke="rgb(0,0,0)" stroke-width="1" opacity="0" d="M 0 0 L 109 0 L 109 126 L 0 126 L 0 0 Z M 49 11 L 33 14 L 28 22 L 24 25 L 20 25 L 20 28 Q 17 27 18 31 L 13 35 L 10 39 L 10 41 L 8 47 L 10 55 L 10 72 L 10 74 L 16 76 Q 20 80 21 87 L 24 87 L 35 95 L 37 102 L 32 103 L 30 104 L 30 113 L 35 116 L 62 116 L 72 114 L 76 115 L 81 114 L 84 115 L 89 114 Q 91 113 90 110 L 90 108 Q 92 109 91 107 L 86 104 L 81 105 Q 80 98 76 95 L 76 88 Q 77 83 83 84 L 87 80 L 87 76 Q 90 77 89 74 L 99 75 L 101 72 L 101 48 L 99 44 L 99 41 L 94 41 L 89 30 L 81 24 L 74 16 L 74 14 L 71 11 L 51 11 L 49 11 Z " /><path fill="rgb(6,8,14)" stroke="rgb(6,8,14)" stroke-width="1" opacity="0.9764705882352941" d="M 66.5 12 L 70 12.5 L 66.5 13 L 66.5 12 Z " /><path fill="rgb(6,8,14)" stroke="rgb(6,8,14)" stroke-width="1" opacity="0.9764705882352941" d="M 72.5 25 L 75 26.5 L 72 27 L 72.5 25 Z " /><path fill="rgb(6,8,14)" stroke="rgb(6,8,14)" stroke-width="1" opacity="0.9764705882352941" d="M 30.5 26 L 37.5 31 Q 38.8 28.8 43.5 30 L 50 31 L 50.5 33 L 52.5 32 L 52.5 34 L 57 35 L 63 47.5 L 61.5 47 L 57.5 45 L 52.5 47 L 51 39.5 L 54 38.5 L 50 36.5 L 51 34 L 48 35.5 L 48.5 37 L 46.5 36 Q 45.3 38.3 40.5 37 L 38.5 37 Q 32.1 37.1 30 41.5 Q 30.8 45.3 28.5 46 Q 24.8 46.8 24 44.5 Q 24.8 41.9 21.5 43 L 20 45.5 L 21 48 L 18.5 47 L 18 48.5 L 21 50 L 20 52.5 L 22 53 L 20 57.5 L 22 58.5 L 17 59.5 L 21 61.5 L 19 62 Q 20.1 64.7 17.5 64 L 16 63.5 Q 15.2 66.1 18.5 65 Q 21.8 66.8 18 68.5 L 20 73 L 15.5 71 L 12 73 L 11 69.5 L 12 66.5 L 11 61.5 L 12.5 58 L 13.5 60 L 19 56.5 L 18 54.5 L 19 51.5 L 16.5 48 L 14.5 47 L 12.5 49 L 10 48.5 Q 9.3 45.9 12 47 L 12 42.5 L 13 42.5 L 13.5 44 L 15 40.5 L 12 39.5 L 15.5 38 L 19.5 39 Q 22.3 37.8 20 36.5 Q 18.8 30.4 21.5 31 L 21.5 29 L 24 28.5 L 23.5 27 L 25.5 28 L 30.5 26 Z M 28 28 Q 28 31 25 30 Q 22 31 24 33 L 23 32 Q 19 31 21 37 L 21 39 L 25 42 Q 23 47 29 45 L 30 37 L 32 34 L 31 29 L 29 30 L 28 28 Z M 54 41 L 53 44 L 54 44 L 54 41 Z M 16 43 L 16 46 Q 19 45 16 43 Z " /><path fill="rgb(6,8,14)" stroke="rgb(6,8,14)" stroke-width="1" opacity="0.9764705882352941" d="M 88.5 33 L 89 35.5 L 88 35.5 L 88.5 33 Z " /><path fill="rgb(6,8,14)" stroke="rgb(6,8,14)" stroke-width="1" opacity="0.9764705882352941" d="M 98.5 47 L 99 73 L 93.5 74 L 93 72.5 L 94 68.5 L 93.5 67 L 96 65.5 L 96 64 L 98 63.5 L 98.5 47 Z " /><path fill="rgb(6,8,14)" stroke="rgb(6,8,14)" stroke-width="1" opacity="0.9764705882352941" d="M 24.5 57 L 25.5 59 Q 22.7 59.7 24.5 57 Z " /><path fill="rgb(6,8,14)" stroke="rgb(6,8,14)" stroke-width="1" opacity="0.9764705882352941" d="M 77.5 57 L 76.5 59 L 77.5 57 Z " /><path fill="rgb(6,8,14)" stroke="rgb(6,8,14)" stroke-width="1" opacity="0.9764705882352941" d="M 30.5 58 L 35 58.5 L 30.5 59 L 30.5 58 Z " /><path fill="rgb(6,8,14)" stroke="rgb(6,8,14)" stroke-width="1" opacity="0.9764705882352941" d="M 74.5 58 L 73.5 60 L 74.5 58 Z " /><path fill="rgb(6,8,14)" stroke="rgb(6,8,14)" stroke-width="1" opacity="0.9764705882352941" d="M 46.5 60 L 49.5 64 Q 46.9 63.2 48 66.5 L 46 71 L 44 71 L 44 66 L 42.5 66 L 42.5 64 Q 39.5 64.7 41 61 L 44 62.5 L 44.5 64 L 47 62.5 L 46.5 60 Z " /><path fill="rgb(6,8,14)" stroke="rgb(6,8,14)" stroke-width="1" opacity="0.9764705882352941" d="M 86.5 60 L 88 63.5 L 86 62.5 L 86.5 60 Z " /><path fill="rgb(6,8,14)" stroke="rgb(6,8,14)" stroke-width="1" opacity="0.9764705882352941" d="M 27.5 62 Q 29.8 61.3 29 63.5 L 31 64.5 Q 30.3 62.3 32.5 63 L 34 62.5 L 32.5 66 L 31 65.5 L 30.5 69 L 30 65.5 L 27.5 62 Z " /><path fill="rgb(6,8,14)" stroke="rgb(6,8,14)" stroke-width="1" opacity="0.9764705882352941" d="M 38.5 63 L 39 65 L 37 64.5 L 38.5 63 Z " /><path fill="rgb(6,8,14)" stroke="rgb(6,8,14)" stroke-width="1" opacity="0.9764705882352941" d="M 51.5 71 L 53.5 74 L 50 73.5 L 51.5 71 Z " /><path fill="rgb(6,8,14)" stroke="rgb(6,8,14)" stroke-width="1" opacity="0.9764705882352941" d="M 86 71 L 90 71.5 L 86.5 73 L 86 71 Z " /><path fill="rgb(6,8,14)" stroke="rgb(6,8,14)" stroke-width="1" opacity="0.9764705882352941" d="M 86.5 74 L 87 75.5 L 85.5 79 L 85 75.5 L 86.5 74 Z " /><path fill="rgb(6,8,14)" stroke="rgb(6,8,14)" stroke-width="1" opacity="0.9764705882352941" d="M 81.5 77 L 84 78 Q 85.5 81.7 82.5 81 L 78.5 84 L 77 83.5 Q 77.8 85.8 75.5 85 L 74.5 83 L 76 82.5 L 74 82 L 75 79.5 L 74.5 78 Q 80 79.5 81.5 77 Z " /><path fill="rgb(6,8,14)" stroke="rgb(6,8,14)" stroke-width="1" opacity="0.9764705882352941" d="M 40.5 101 L 43 104.5 L 41.5 104 Q 38.4 104.7 40.5 101 Z " /><path fill="rgb(6,8,14)" stroke="rgb(6,8,14)" stroke-width="1" opacity="0.9764705882352941" d="M 76.5 102 L 75.5 104 L 76.5 102 Z " /><path fill="rgb(6,8,14)" stroke="rgb(6,8,14)" stroke-width="1" opacity="0.9764705882352941" d="M 33.5 105 Q 41.2 103.2 43 107.5 L 41.5 107 L 33.5 106 Q 30.7 107.3 33 108.5 Q 32.3 112.3 34.5 113 L 41 113.5 L 32 114 L 31 106 L 33.5 105 Z " /><path fill="rgb(6,8,14)" stroke="rgb(6,8,14)" stroke-width="1" opacity="0.9764705882352941" d="M 76.5 105 L 79 106.5 L 76 108 L 75 110.5 L 76.5 111 L 78.5 111 Q 80.8 111.8 80 109.5 L 83.5 108 L 85.5 108 L 88.5 107 L 88 108.5 L 89 112.5 Q 88 115 83.5 114 L 80.5 113 L 77.5 114 Q 76.3 111.8 71.5 113 L 69.5 113 L 65 112.5 L 65 110.5 L 64 107.5 L 66.5 106 L 68.5 107 L 72.5 106 L 75.5 107 L 78 106.5 L 76.5 105 Z M 70 107 L 70 108 L 73 108 L 70 107 Z M 68 109 L 68 110 L 71 110 L 68 109 Z M 86 112 L 86 113 L 88 113 L 86 112 Z " /><path fill="rgb(6,8,14)" stroke="rgb(6,8,14)" stroke-width="1" opacity="0.9764705882352941" d="M 43.5 111 L 44 114 L 42 113.5 L 43.5 111 Z " /><path fill="rgb(10,13,20)" stroke="rgb(10,13,20)" stroke-width="1" opacity="0.996078431372549" d="M 65.5 12 L 66 13.5 L 66 15.5 Q 65.4 21.7 68 24 Q 72 25.4 70 18.5 L 69 18.5 L 68.5 20 Q 66.3 19.3 67 15.5 L 68.5 13 L 72 15.5 L 72 27 L 81.5 27 Q 84.3 28.3 82 29.5 Q 81 34 83.5 35 L 87 36 Q 85.5 39.8 88.5 39 L 88.5 41 L 90 41.5 L 90 48.5 L 91.5 50 Q 93 46.5 94.5 49 Q 97.8 50.1 97 47.5 L 99 46.5 L 97 52.5 L 98 53.5 L 98 64 Q 95.3 62.9 96 65.5 L 93 67.5 L 94 72 L 86 71 L 88 61.5 L 84 58.5 L 84.5 57 L 81.5 58 L 79.5 58 L 77.5 57 L 73 59.5 L 72 63.5 L 73 66.5 L 72 69.5 L 73 71.5 L 68 67.5 L 69 64.5 Q 66 61.3 67 55 L 63.5 56 L 63 45.5 L 57 35 Q 52.4 34.4 50.5 38 L 51.5 36 L 54 34.5 L 52 33.5 L 52.5 32 L 50.5 33 L 50 31 L 40 29.5 L 48.5 29 L 55.5 33 L 57.5 33 Q 61.3 31.8 60 35.5 L 64 37 L 64.5 39 L 71.5 39 Q 74.3 37.8 72 36.5 L 71 31 L 67 31 L 67 29.5 L 66 27 Q 62.7 28.3 64 23.5 L 63 22.5 L 63 14 L 61 13.5 L 65.5 12 Z " /><path fill="rgb(10,13,20)" stroke="rgb(10,13,20)" stroke-width="1" opacity="0.996078431372549" d="M 34.5 28 L 38 30.5 L 36.5 30 L 34.5 29 L 33 29.5 L 34.5 28 Z " /><path fill="rgb(10,13,20)" stroke="rgb(10,13,20)" stroke-width="1" opacity="0.996078431372549" d="M 27.5 29 L 29.5 29 L 32 30.5 L 29 45 Q 23.4 47.2 25 41.5 L 20 37.5 L 21 32 L 27.5 29 Z " /><path fill="rgb(10,13,20)" stroke="rgb(10,13,20)" stroke-width="1" opacity="0.996078431372549" d="M 46.5 36 L 47.5 38 L 46.5 36 Z " /><path fill="rgb(10,13,20)" stroke="rgb(10,13,20)" stroke-width="1" opacity="0.996078431372549" d="M 54.5 37 L 52.5 40 L 52 38 L 54.5 37 Z " /><path fill="rgb(10,13,20)" stroke="rgb(10,13,20)" stroke-width="1" opacity="0.996078431372549" d="M 53.5 41 L 54 43.5 L 53 43.5 L 53.5 41 Z " /><path fill="rgb(10,13,20)" stroke="rgb(10,13,20)" stroke-width="1" opacity="0.996078431372549" d="M 18.5 55 L 19 56.5 L 17 57.5 L 18.5 55 Z " /><path fill="rgb(10,13,20)" stroke="rgb(10,13,20)" stroke-width="1" opacity="0.996078431372549" d="M 60.5 57 L 62 57.5 L 60 58.5 L 61 61 Q 55.7 62.2 56.5 59 L 52 59 L 53 61.5 L 48.5 62 L 46 60.5 L 47 62.5 L 44.5 64 L 42.5 61 Q 39.5 60.2 41 64 L 43 64.5 L 39 65 L 38.5 63 Q 37.3 66 33 65 L 34 62.5 L 32.5 62 L 29.5 63 L 23.5 61 L 21.5 62 L 20 59 L 22.5 58 L 25.5 59 L 29.5 58 L 34.5 59 L 36 58.5 L 35.5 60 Q 42.2 60.7 45.5 58 L 59.5 58 L 60.5 57 Z " /><path fill="rgb(10,13,20)" stroke="rgb(10,13,20)" stroke-width="1" opacity="0.996078431372549" d="M 13 58 L 15 58.5 L 13 59.5 L 13 58 Z " /><path fill="rgb(10,13,20)" stroke="rgb(10,13,20)" stroke-width="1" opacity="0.996078431372549" d="M 19.5 67 L 20 70.5 L 19 70.5 L 19.5 67 Z " /><path fill="rgb(10,13,20)" stroke="rgb(10,13,20)" stroke-width="1" opacity="0.996078431372549" d="M 20.5 72 L 23 72.5 L 20.5 73 L 20.5 72 Z " /><path fill="rgb(10,13,20)" stroke="rgb(10,13,20)" stroke-width="1" opacity="0.996078431372549" d="M 26.5 72 L 30 73.5 L 28.5 74 L 26.5 74 L 25 73.5 L 26.5 72 Z " /><path fill="rgb(10,13,20)" stroke="rgb(10,13,20)" stroke-width="1" opacity="0.996078431372549" d="M 53.5 72 L 57 73.5 L 54.5 74 L 53.5 72 Z " /><path fill="rgb(10,13,20)" stroke="rgb(10,13,20)" stroke-width="1" opacity="0.996078431372549" d="M 85 73 L 87 73.5 L 83.5 78 L 77.5 82 L 74 79.5 L 75.5 80 L 78.5 81 L 78.5 79 L 79.5 80 L 82.5 77 Q 84.8 77.8 84 75.5 L 85 73 Z " /><path fill="rgb(10,13,20)" stroke="rgb(10,13,20)" stroke-width="1" opacity="0.996078431372549" d="M 48 97 L 50 97.5 L 48 98.5 L 48 97 Z " /><path fill="rgb(10,13,20)" stroke="rgb(10,13,20)" stroke-width="1" opacity="0.996078431372549" d="M 42.5 103 L 43 105.5 L 42 107.5 L 44 108 L 41.5 114 Q 40 111.5 34.5 113 L 33 111.5 L 32 107.5 Q 33.5 104.5 39.5 106 L 41.5 107 L 40.5 104 L 42.5 103 Z " /><path fill="rgb(10,13,20)" stroke="rgb(10,13,20)" stroke-width="1" opacity="0.996078431372549" d="M 76.5 103 L 77 104.5 L 76.5 106 L 88 107.5 L 85 108.5 L 87 109.5 L 85.5 110 L 81.5 108 L 81.5 109 L 83 109.5 L 81.5 110 L 80 109.5 Q 80.8 111.8 78.5 111 L 76.5 111 L 74 109.5 L 74.5 108 L 75.5 110 L 76 108 L 78 107.5 L 74 105.5 L 76.5 103 Z " /><path fill="rgb(10,13,20)" stroke="rgb(10,13,20)" stroke-width="1" opacity="0.996078431372549" d="M 69.5 107 L 73 107.5 L 69.5 108 L 69.5 107 Z " /><path fill="rgb(10,13,20)" stroke="rgb(10,13,20)" stroke-width="1" opacity="0.996078431372549" d="M 67.5 109 L 71 109.5 L 67.5 110 L 67.5 109 Z " /><path fill="rgb(10,13,20)" stroke="rgb(10,13,20)" stroke-width="1" opacity="0.996078431372549" d="M 85.5 112 L 88 112.5 L 85.5 113 L 85.5 112 Z " /><path fill="rgb(6,4,7)" stroke="rgb(6,4,7)" stroke-width="1" opacity="0.9686274509803922" d="M 22.5 25 L 30 26.5 L 25.5 28 L 23.5 27 L 23.5 29 L 21 29.5 L 21.5 31 Q 18.5 31.9 20 27.5 L 22.5 25 Z " /><path fill="rgb(6,4,7)" stroke="rgb(6,4,7)" stroke-width="1" opacity="0.9686274509803922" d="M 75.5 26 L 78 26.5 L 75.5 27 L 75.5 26 Z " /><path fill="rgb(6,4,7)" stroke="rgb(6,4,7)" stroke-width="1" opacity="0.9686274509803922" d="M 48.5 35 L 51 35.5 Q 48.9 38.8 48.5 35 Z " /><path fill="rgb(6,4,7)" stroke="rgb(6,4,7)" stroke-width="1" opacity="0.9686274509803922" d="M 39.5 36 L 47 37.5 L 39.5 38 L 38 39.5 L 38 47 L 29 47 L 30 41.5 L 33.5 38 L 39.5 36 Z " /><path fill="rgb(6,4,7)" stroke="rgb(6,4,7)" stroke-width="1" opacity="0.9686274509803922" d="M 11.5 37 L 13.5 41 L 15 40.5 L 17 44.5 L 15 45.5 L 14.5 43 L 13 43.5 L 12.5 42 L 12 47 Q 9.3 48.1 10 45.5 L 9 42.5 L 11.5 37 Z " /><path fill="rgb(6,4,7)" stroke="rgb(6,4,7)" stroke-width="1" opacity="0.9686274509803922" d="M 16.5 38 L 20 38.5 L 16.5 39 L 16.5 38 Z " /><path fill="rgb(6,4,7)" stroke="rgb(6,4,7)" stroke-width="1" opacity="0.9686274509803922" d="M 51.5 40 L 52 47 Q 48.3 48.4 50 42.5 L 51.5 40 Z " /><path fill="rgb(6,4,7)" stroke="rgb(6,4,7)" stroke-width="1" opacity="0.9686274509803922" d="M 21.5 43 Q 24.8 41.9 24 44.5 L 25 46.5 L 24 47.5 L 24 55.5 L 28 57.5 L 25.5 58 L 24 57.5 L 23.5 59 L 20 57.5 L 22 53 L 20 52.5 L 21 50 Q 18.3 48.9 19 51.5 L 18 51.5 L 19 49.5 L 18 47.5 L 19.5 48 Q 21.8 48.8 21 46.5 L 20 44.5 L 21.5 43 Z " /><path fill="rgb(6,4,7)" stroke="rgb(6,4,7)" stroke-width="1" opacity="0.9686274509803922" d="M 57.5 45 L 58.5 47 L 53 46.5 L 57.5 45 Z " /><path fill="rgb(6,4,7)" stroke="rgb(6,4,7)" stroke-width="1" opacity="0.9686274509803922" d="M 18.5 53 L 19.5 55 L 18.5 53 Z " /><path fill="rgb(6,4,7)" stroke="rgb(6,4,7)" stroke-width="1" opacity="0.9686274509803922" d="M 58.5 56 L 62 56.5 L 60 57.5 L 60.5 59 L 57 57.5 L 58.5 56 Z " /><path fill="rgb(6,4,7)" stroke="rgb(6,4,7)" stroke-width="1" opacity="0.9686274509803922" d="M 19.5 62 L 20 65.5 L 18.5 65 Q 15.2 66.1 16 63.5 L 17.5 64 Q 20 64.7 19.5 62 Z " /><path fill="rgb(6,4,7)" stroke="rgb(6,4,7)" stroke-width="1" opacity="0.9686274509803922" d="M 45.5 64 L 46.5 66 L 45.5 64 Z " /><path fill="rgb(6,4,7)" stroke="rgb(6,4,7)" stroke-width="1" opacity="0.9686274509803922" d="M 48.5 64 Q 48 70 51 72.5 Q 49.1 75.8 43 74 L 42 66 L 40 65.5 L 41.5 65 L 44 66 L 44 71 L 46 71 L 48.5 64 Z " /><path fill="rgb(6,4,7)" stroke="rgb(6,4,7)" stroke-width="1" opacity="0.9686274509803922" d="M 31.5 65 L 33.5 65 L 36 65.5 L 32 67.5 L 31.5 72 Q 28.5 71.5 29 67.5 L 30 67.5 L 30.5 70 L 31.5 65 Z " /><path fill="rgb(6,4,7)" stroke="rgb(6,4,7)" stroke-width="1" opacity="0.9686274509803922" d="M 11.5 66 L 12 68.5 L 11 68.5 L 11.5 66 Z " /><path fill="rgb(6,4,7)" stroke="rgb(6,4,7)" stroke-width="1" opacity="0.9686274509803922" d="M 16.5 69 L 17 70.5 L 16.5 72 L 18 72.5 L 14.5 73 L 16 70.5 L 16.5 69 Z " /><path fill="rgb(6,4,7)" stroke="rgb(6,4,7)" stroke-width="1" opacity="0.9686274509803922" d="M 11.5 70 L 12 72.5 L 11 72.5 L 11.5 70 Z " /><path fill="rgb(6,4,7)" stroke="rgb(6,4,7)" stroke-width="1" opacity="0.9686274509803922" d="M 75.5 77 L 81 77.5 L 75.5 78 L 75.5 77 Z " /><path fill="rgb(6,4,7)" stroke="rgb(6,4,7)" stroke-width="1" opacity="0.9686274509803922" d="M 73.5 78 L 75 84.5 L 73 85 L 73.5 78 Z " /><path fill="rgb(6,4,7)" stroke="rgb(6,4,7)" stroke-width="1" opacity="0.9686274509803922" d="M 77.5 100 L 78 104.5 L 77 104.5 L 76 101.5 L 77.5 100 Z " /><path fill="rgb(6,4,7)" stroke="rgb(6,4,7)" stroke-width="1" opacity="0.9686274509803922" d="M 74.5 104 L 74 105.5 L 73.5 107 L 69.5 106 L 67.5 107 L 65.5 106 L 63 107 L 63.5 105 L 73.5 105 L 74.5 104 Z " /><path fill="rgb(6,4,7)" stroke="rgb(6,4,7)" stroke-width="1" opacity="0.9686274509803922" d="M 30.5 105 L 33 105.5 L 30.5 106 L 30.5 105 Z " /><path fill="rgb(6,4,7)" stroke="rgb(6,4,7)" stroke-width="1" opacity="0.9686274509803922" d="M 86.5 105 L 89 106.5 L 79.5 107 L 79.5 106 Q 85 107.5 86.5 105 Z " /><path fill="rgb(6,4,7)" stroke="rgb(6,4,7)" stroke-width="1" opacity="0.9686274509803922" d="M 64.5 108 L 66 111.5 L 65.5 113 L 70.5 114 Q 71.8 111.8 76.5 113 L 76.5 114 L 65.5 115 Q 62.4 113.4 64.5 108 Z " /><path fill="rgb(6,4,7)" stroke="rgb(6,4,7)" stroke-width="1" opacity="0.9686274509803922" d="M 88.5 108 L 89 111.5 L 88 111.5 L 88.5 108 Z " /><path fill="rgb(6,4,7)" stroke="rgb(6,4,7)" stroke-width="1" opacity="0.9686274509803922" d="M 80.5 113 L 83 113.5 L 80.5 114 L 80.5 113 Z " /><path fill="rgb(153,143,132)" stroke="rgb(153,143,132)" stroke-width="1" opacity="0.1803921568627451" d="M 55.5 11 L 70 11.5 L 55.5 12 L 55.5 11 Z " /><path fill="rgb(153,143,132)" stroke="rgb(153,143,132)" stroke-width="1" opacity="0.1803921568627451" d="M 45.5 12 L 53 12.5 L 45.5 13 L 45.5 12 Z " /><path fill="rgb(153,143,132)" stroke="rgb(153,143,132)" stroke-width="1" opacity="0.1803921568627451" d="M 36.5 13 L 42 13.5 L 36.5 14 L 36.5 13 Z " /><path fill="rgb(153,143,132)" stroke="rgb(153,143,132)" stroke-width="1" opacity="0.1803921568627451" d="M 31.5 15 L 33 15.5 Q 28.4 18.8 28 25 L 24 24.5 L 28 21.5 L 31.5 15 Z " /><path fill="rgb(153,143,132)" stroke="rgb(153,143,132)" stroke-width="1" opacity="0.1803921568627451" d="M 73 16 L 76 17.5 L 80.5 24 Q 83.1 23.3 82 26 Q 79.3 27.1 80 24.5 L 73 16 Z " /><path fill="rgb(153,143,132)" stroke="rgb(153,143,132)" stroke-width="1" opacity="0.1803921568627451" d="M 17.5 31 Q 20.1 30.3 19 33 L 11.5 37 L 11.5 36 L 17.5 31 Z " /><path fill="rgb(153,143,132)" stroke="rgb(153,143,132)" stroke-width="1" opacity="0.1803921568627451" d="M 89.5 32 L 92 35.5 L 91 36.5 L 94 39.5 L 92.5 41 Q 89.9 41.8 91 38.5 L 89 38.5 L 89.5 32 Z " /><path fill="rgb(153,143,132)" stroke="rgb(153,143,132)" stroke-width="1" opacity="0.1803921568627451" d="M 8.5 46 L 11 56.5 L 10 56.5 L 8.5 46 Z " /><path fill="rgb(153,143,132)" stroke="rgb(153,143,132)" stroke-width="1" opacity="0.1803921568627451" d="M 87 73 L 90 73.5 L 89 76 Q 85.7 77.1 87 73 Z " /><path fill="rgb(153,143,132)" stroke="rgb(153,143,132)" stroke-width="1" opacity="0.1803921568627451" d="M 12.5 74 Q 18.3 73.3 19 77.5 Q 18.3 80.1 21 79 L 21 83.5 L 20 83.5 L 15.5 76 Q 11.7 76.5 12.5 74 Z " /><path fill="rgb(153,143,132)" stroke="rgb(153,143,132)" stroke-width="1" opacity="0.1803921568627451" d="M 94.5 74 L 97 74.5 L 94.5 75 L 94.5 74 Z " /><path fill="rgb(153,143,132)" stroke="rgb(153,143,132)" stroke-width="1" opacity="0.1803921568627451" d="M 22.5 86 L 36 94 L 36 96 Q 38.7 94.9 38 97.5 L 39 98.5 L 39 105 L 31.5 105 L 30 103.5 Q 35.4 104.4 37 101.5 L 35 95 Q 26.8 91.9 22.5 86 Z " /><path fill="rgb(153,143,132)" stroke="rgb(153,143,132)" stroke-width="1" opacity="0.1803921568627451" d="M 74.5 86 Q 77.1 85.2 76 88.5 L 74.5 92 L 73 87.5 L 74.5 86 Z " /><path fill="rgb(153,143,132)" stroke="rgb(153,143,132)" stroke-width="1" opacity="0.1803921568627451" d="M 75.5 94 L 78 99 Q 75.3 100.1 76 97.5 L 75.5 94 Z " /><path fill="rgb(153,143,132)" stroke="rgb(153,143,132)" stroke-width="1" opacity="0.1803921568627451" d="M 79.5 105 L 83 105.5 L 79.5 106 L 79.5 105 Z " /><path fill="rgb(153,143,132)" stroke="rgb(153,143,132)" stroke-width="1" opacity="0.1803921568627451" d="M 89.5 105 L 90 107.5 L 89 107.5 L 89.5 105 Z " /><path fill="rgb(153,143,132)" stroke="rgb(153,143,132)" stroke-width="1" opacity="0.1803921568627451" d="M 57.5 114 L 63 114.5 L 61.5 116 L 42.5 116 L 42.5 115 L 56.5 115 L 57.5 114 Z " /><path fill="rgb(106,66,57)" stroke="rgb(106,66,57)" stroke-width="1" opacity="0.9725490196078431" d="M 53.5 12 L 57 12.5 L 53.5 13 L 53.5 12 Z " /><path fill="rgb(106,66,57)" stroke="rgb(106,66,57)" stroke-width="1" opacity="0.9725490196078431" d="M 33.5 15 L 37 16 L 39 23.5 L 39 25.5 L 37.5 28 L 32 26.5 L 33 24.5 Q 30.3 22.8 32 16.5 L 33.5 15 Z " /><path fill="rgb(106,66,57)" stroke="rgb(106,66,57)" stroke-width="1" opacity="0.9725490196078431" d="M 72.5 15 L 73 22.5 L 72 22.5 L 72.5 15 Z " /><path fill="rgb(106,66,57)" stroke="rgb(106,66,57)" stroke-width="1" opacity="0.9725490196078431" d="M 75.5 25 L 78 25.5 L 75.5 26 L 75.5 25 Z " /><path fill="rgb(106,66,57)" stroke="rgb(106,66,57)" stroke-width="1" opacity="0.9725490196078431" d="M 19.5 34 L 20 36.5 L 19 36.5 L 19.5 34 Z " /><path fill="rgb(106,66,57)" stroke="rgb(106,66,57)" stroke-width="1" opacity="0.9725490196078431" d="M 15.5 37 L 18 37.5 L 15.5 38 L 15.5 37 Z " /><path fill="rgb(106,66,57)" stroke="rgb(106,66,57)" stroke-width="1" opacity="0.9725490196078431" d="M 49.5 40 L 50 47.5 L 49 47.5 L 49.5 40 Z " /><path fill="rgb(106,66,57)" stroke="rgb(106,66,57)" stroke-width="1" opacity="0.9725490196078431" d="M 38.5 41 L 40 44.5 L 38.5 48 L 38.5 41 Z " /><path fill="rgb(106,66,57)" stroke="rgb(106,66,57)" stroke-width="1" opacity="0.9725490196078431" d="M 9.5 46 L 10 48.5 L 9 48.5 L 9.5 46 Z " /><path fill="rgb(106,66,57)" stroke="rgb(106,66,57)" stroke-width="1" opacity="0.9725490196078431" d="M 27.5 47 L 30 47.5 L 27.5 48 L 27.5 47 Z " /><path fill="rgb(106,66,57)" stroke="rgb(106,66,57)" stroke-width="1" opacity="0.9725490196078431" d="M 17.5 50 L 18 56.5 L 17 56.5 L 17.5 50 Z " /><path fill="rgb(106,66,57)" stroke="rgb(106,66,57)" stroke-width="1" opacity="0.9725490196078431" d="M 48.5 56 L 53 56.5 L 48.5 57 L 48.5 56 Z " /><path fill="rgb(106,66,57)" stroke="rgb(106,66,57)" stroke-width="1" opacity="0.9725490196078431" d="M 64.5 57 Q 66.8 56.3 66 58.5 L 63 60 L 64 62.5 Q 61.5 64 65 65.5 L 63.5 67 Q 58.3 67.2 56.5 64 L 51 64 L 51 70 L 56.5 70 L 56.5 71 Q 51.3 72.3 50 69.5 L 50 63 L 58.5 63 L 62 65 Q 60.5 58.7 64.5 57 Z " /><path fill="rgb(106,66,57)" stroke="rgb(106,66,57)" stroke-width="1" opacity="0.9725490196078431" d="M 79.5 59 L 84 59.5 L 79.5 60 L 79.5 59 Z " /><path fill="rgb(106,66,57)" stroke="rgb(106,66,57)" stroke-width="1" opacity="0.9725490196078431" d="M 66.5 60 L 67 64.5 L 66 64.5 L 66.5 60 Z " /><path fill="rgb(106,66,57)" stroke="rgb(106,66,57)" stroke-width="1" opacity="0.9725490196078431" d="M 85.5 62 L 86 71.5 L 85 71.5 L 85.5 62 Z " /><path fill="rgb(106,66,57)" stroke="rgb(106,66,57)" stroke-width="1" opacity="0.9725490196078431" d="M 21.5 63 L 28 64 Q 29.3 68.6 26.5 70 L 21.5 71 Q 18.8 69.8 20 64.5 L 21.5 63 Z M 21 64 L 21 69 L 23 69 L 22 68 L 24 65 L 21 64 Z " /><path fill="rgb(106,66,57)" stroke="rgb(106,66,57)" stroke-width="1" opacity="0.9725490196078431" d="M 35.5 66 L 40 66.5 L 35.5 67 L 35.5 66 Z " /><path fill="rgb(106,66,57)" stroke="rgb(106,66,57)" stroke-width="1" opacity="0.9725490196078431" d="M 41.5 67 L 42 70.5 L 41 70.5 L 41.5 67 Z " /><path fill="rgb(106,66,57)" stroke="rgb(106,66,57)" stroke-width="1" opacity="0.9725490196078431" d="M 67.5 67 L 69 69.5 L 67 68.5 L 67.5 67 Z " /><path fill="rgb(106,66,57)" stroke="rgb(106,66,57)" stroke-width="1" opacity="0.9725490196078431" d="M 32.5 70 L 33 72.5 L 32 72.5 L 32.5 70 Z " /><path fill="rgb(106,66,57)" stroke="rgb(106,66,57)" stroke-width="1" opacity="0.9725490196078431" d="M 71.5 72 L 74 72.5 Q 71.9 75.8 71.5 72 Z " /><path fill="rgb(106,66,57)" stroke="rgb(106,66,57)" stroke-width="1" opacity="0.9725490196078431" d="M 84.5 73 L 82.5 76 L 84.5 73 Z " /><path fill="rgb(106,66,57)" stroke="rgb(106,66,57)" stroke-width="1" opacity="0.9725490196078431" d="M 21.5 74 L 27 77.5 L 24.5 78 L 23 77.5 L 23 84.5 L 21 85 L 21.5 74 Z " /><path fill="rgb(106,66,57)" stroke="rgb(106,66,57)" stroke-width="1" opacity="0.9725490196078431" d="M 27.5 75 L 32 75.5 L 27.5 76 L 27.5 75 Z " /><path fill="rgb(106,66,57)" stroke="rgb(106,66,57)" stroke-width="1" opacity="0.9725490196078431" d="M 52.5 75 L 60 75.5 L 52.5 76 L 52.5 75 Z " /><path fill="rgb(106,66,57)" stroke="rgb(106,66,57)" stroke-width="1" opacity="0.9725490196078431" d="M 71.5 79 L 73 87.5 L 71 88.5 L 71.5 79 Z " /><path fill="rgb(106,66,57)" stroke="rgb(106,66,57)" stroke-width="1" opacity="0.9725490196078431" d="M 42.5 82 L 43 84.5 L 42 84.5 L 42.5 82 Z " /><path fill="rgb(106,66,57)" stroke="rgb(106,66,57)" stroke-width="1" opacity="0.9725490196078431" d="M 62 89 Q 64.7 87.9 64 90.5 L 62.5 94 L 62 89 Z " /><path fill="rgb(106,66,57)" stroke="rgb(106,66,57)" stroke-width="1" opacity="0.9725490196078431" d="M 38.5 94 L 39 97.5 L 38 97.5 L 38.5 94 Z " /><path fill="rgb(106,66,57)" stroke="rgb(106,66,57)" stroke-width="1" opacity="0.9725490196078431" d="M 50.5 94 L 59.5 94 L 60 95.5 L 61 96.5 L 61 103 L 51.5 104 L 53 101.5 Q 52.5 97.5 55.5 97 Q 60.3 98.3 59 95 L 50.5 95 L 50.5 94 Z " /><path fill="rgb(106,66,57)" stroke="rgb(106,66,57)" stroke-width="1" opacity="0.9725490196078431" d="M 74.5 101 L 74 102.5 L 72.5 105 L 68 104.5 L 73 104 L 74.5 101 Z " /><path fill="rgb(106,66,57)" stroke="rgb(106,66,57)" stroke-width="1" opacity="0.9725490196078431" d="M 39.5 102 L 40 104.5 L 39 104.5 L 39.5 102 Z " /><path fill="rgb(106,66,57)" stroke="rgb(106,66,57)" stroke-width="1" opacity="0.9725490196078431" d="M 47.5 104 L 50 104.5 L 47.5 105 L 47.5 104 Z " /><path fill="rgb(106,66,57)" stroke="rgb(106,66,57)" stroke-width="1" opacity="0.9725490196078431" d="M 62 104 L 65 104.5 L 63 105 L 62.5 109 L 62 104 Z " /><path fill="rgb(106,66,57)" stroke="rgb(106,66,57)" stroke-width="1" opacity="0.9725490196078431" d="M 44.5 108 L 45 110.5 L 44 110.5 L 44.5 108 Z " /><path fill="rgb(241,201,162)" stroke="rgb(241,201,162)" stroke-width="1" opacity="0.9568627450980393" d="M 73.5 18 L 80 25.5 L 78.5 25 L 73 25 L 73.5 18 Z " /><path fill="rgb(241,201,162)" stroke="rgb(241,201,162)" stroke-width="1" opacity="0.9568627450980393" d="M 30.5 19 L 32 26 L 28 25 L 30.5 19 Z " /><path fill="rgb(241,201,162)" stroke="rgb(241,201,162)" stroke-width="1" opacity="0.9568627450980393" d="M 17.5 33 L 19 33 L 19 37 L 13 36.5 L 17.5 33 Z " /><path fill="rgb(241,201,162)" stroke="rgb(241,201,162)" stroke-width="1" opacity="0.9568627450980393" d="M 48.5 38 L 49 42.5 L 48 42.5 L 47 39.5 L 48.5 38 Z " /><path fill="rgb(241,201,162)" stroke="rgb(241,201,162)" stroke-width="1" opacity="0.9568627450980393" d="M 90.5 38 L 91 40.5 L 89 39.5 L 90.5 38 Z " /><path fill="rgb(241,201,162)" stroke="rgb(241,201,162)" stroke-width="1" opacity="0.9568627450980393" d="M 26 48 L 35.5 49 L 36.5 48 L 49.5 48 L 53.5 49 L 54.5 48 L 61 48 L 61 55 L 56.5 55 L 55.5 56 L 34.5 56 L 33.5 55 L 26 55 L 26 48 Z " /><path fill="rgb(241,201,162)" stroke="rgb(241,201,162)" stroke-width="1" opacity="0.9568627450980393" d="M 15.5 49 Q 18.8 50.9 17 57 L 11 57 L 11 54.5 L 10 50 L 15.5 49 Z " /><path fill="rgb(241,201,162)" stroke="rgb(241,201,162)" stroke-width="1" opacity="0.9568627450980393" d="M 81.5 60 Q 84.8 58.9 84 61.5 L 85 62.5 L 85 71.5 L 82 73.5 L 81 69.5 Q 84.2 67 83 61 L 81.5 60 Z " /><path fill="rgb(241,201,162)" stroke="rgb(241,201,162)" stroke-width="1" opacity="0.9568627450980393" d="M 34 67 L 41 67 L 41 72.5 L 42 75 L 46.5 76 L 62 76 Q 63.2 85.7 61 91 Q 53.6 94.7 39.5 93 L 38 94.5 Q 38.7 97.1 36 96 Q 37.1 93.3 34.5 94 L 26 87.5 L 28 87.5 L 27 79.5 L 28 77.5 L 27.5 76 Q 32 77 33 74.5 L 34 67 Z M 43 81 L 42 82 L 34 82 L 32 85 L 44 86 Q 45 82 43 81 Z " /><path fill="rgb(241,201,162)" stroke="rgb(241,201,162)" stroke-width="1" opacity="0.9568627450980393" d="M 16.5 74 Q 21.9 72.1 21 75.5 L 19.5 79 L 16.5 74 Z " /><path fill="rgb(241,201,162)" stroke="rgb(241,201,162)" stroke-width="1" opacity="0.9568627450980393" d="M 73.5 88 L 76 98.5 L 75 98.5 Q 71.9 94.6 73.5 88 Z " /><path fill="rgb(241,201,162)" stroke="rgb(241,201,162)" stroke-width="1" opacity="0.9568627450980393" d="M 46.5 112 L 47 114 L 53 114.5 L 46 115 L 46.5 112 Z " /><path fill="rgb(241,201,162)" stroke="rgb(241,201,162)" stroke-width="1" opacity="0.9568627450980393" d="M 54.5 114 L 57 114.5 L 54.5 115 L 54.5 114 Z " /><path fill="rgb(32,13,11)" stroke="rgb(32,13,11)" stroke-width="1" opacity="0.996078431372549" d="M 39.5 38 L 45 38.5 L 38.5 40 L 39.5 38 Z " /><path fill="rgb(32,13,11)" stroke="rgb(32,13,11)" stroke-width="1" opacity="0.996078431372549" d="M 25.5 46 L 29 46.5 L 25 47 L 24.5 56 L 24 47.5 L 25.5 46 Z " /><path fill="rgb(32,13,11)" stroke="rgb(32,13,11)" stroke-width="1" opacity="0.996078431372549" d="M 51.5 47 L 54 47.5 L 51.5 48 L 51.5 47 Z " /><path fill="rgb(32,13,11)" stroke="rgb(32,13,11)" stroke-width="1" opacity="0.996078431372549" d="M 61.5 47 Q 63.8 47.8 63 51.5 L 62 51.5 L 61.5 47 Z " /><path fill="rgb(32,13,11)" stroke="rgb(32,13,11)" stroke-width="1" opacity="0.996078431372549" d="M 27.5 56 Q 32.2 54.8 33.5 57 L 52.5 57 L 57.5 56 L 56.5 58 L 45.5 58 Q 42.2 60.7 35.5 60 L 35.5 58 Q 27.4 59.8 27.5 56 Z " /><path fill="rgb(32,13,11)" stroke="rgb(32,13,11)" stroke-width="1" opacity="0.996078431372549" d="M 77.5 58 L 84 58.5 L 77.5 59 L 77.5 58 Z " /><path fill="rgb(32,13,11)" stroke="rgb(32,13,11)" stroke-width="1" opacity="0.996078431372549" d="M 52 59 L 57 59 Q 55.9 61.7 58.5 61 L 58.5 62 Q 53.3 63.3 52 60.5 L 52 59 Z " /><path fill="rgb(32,13,11)" stroke="rgb(32,13,11)" stroke-width="1" opacity="0.996078431372549" d="M 24.5 62 Q 29.5 61.5 30 65.5 L 29.5 67 L 26.5 63 Q 23.5 63.5 24.5 62 Z " /><path fill="rgb(32,13,11)" stroke="rgb(32,13,11)" stroke-width="1" opacity="0.996078431372549" d="M 73.5 64 L 74 70.5 L 73 70.5 L 73.5 64 Z " /><path fill="rgb(32,13,11)" stroke="rgb(32,13,11)" stroke-width="1" opacity="0.996078431372549" d="M 36.5 65 L 40 65.5 L 36.5 66 L 36.5 65 Z " /><path fill="rgb(32,13,11)" stroke="rgb(32,13,11)" stroke-width="1" opacity="0.996078431372549" d="M 33.5 66 L 33 67.5 L 32.5 69 L 32 67.5 L 33.5 66 Z " /><path fill="rgb(32,13,11)" stroke="rgb(32,13,11)" stroke-width="1" opacity="0.996078431372549" d="M 49.5 67 L 50 69.5 L 49 69.5 L 49.5 67 Z " /><path fill="rgb(32,13,11)" stroke="rgb(32,13,11)" stroke-width="1" opacity="0.996078431372549" d="M 28.5 68 L 29.5 70 L 31 69.5 Q 28.5 71 32 72.5 L 31.5 75 L 23.5 75 L 21 73.5 L 23 73 Q 21.7 69.7 26.5 71 L 28.5 68 Z M 27 72 L 25 73 L 25 74 L 30 74 L 27 72 Z " /><path fill="rgb(32,13,11)" stroke="rgb(32,13,11)" stroke-width="1" opacity="0.996078431372549" d="M 68.5 68 L 72.5 73 L 68.5 68 Z " /><path fill="rgb(32,13,11)" stroke="rgb(32,13,11)" stroke-width="1" opacity="0.996078431372549" d="M 52.5 71 L 55 71.5 L 52.5 72 L 52.5 71 Z " /><path fill="rgb(32,13,11)" stroke="rgb(32,13,11)" stroke-width="1" opacity="0.996078431372549" d="M 57.5 72 Q 61.7 70.9 60 75 L 57 74.5 L 59 73.5 L 57.5 72 Z " /><path fill="rgb(32,13,11)" stroke="rgb(32,13,11)" stroke-width="1" opacity="0.996078431372549" d="M 45.5 74 L 55 74.5 L 45.5 75 L 45.5 74 Z " /><path fill="rgb(32,13,11)" stroke="rgb(32,13,11)" stroke-width="1" opacity="0.996078431372549" d="M 83.5 75 L 82.5 77 L 81 76.5 L 83.5 75 Z " /><path fill="rgb(32,13,11)" stroke="rgb(32,13,11)" stroke-width="1" opacity="0.996078431372549" d="M 72.5 79 L 73 86.5 L 72 86.5 L 72.5 79 Z " /><path fill="rgb(32,13,11)" stroke="rgb(32,13,11)" stroke-width="1" opacity="0.996078431372549" d="M 39 94 L 58 95.5 L 51 96 L 52 102.5 L 50.5 104 L 43 105 Q 44 102 41 103 L 41 97.5 Q 38 98.3 39 94 Z M 48 97 L 48 99 L 50 98 L 48 97 Z " /><path fill="rgb(32,13,11)" stroke="rgb(32,13,11)" stroke-width="1" opacity="0.996078431372549" d="M 76.5 100 L 76 101.5 L 73.5 105 L 75 102.5 L 76.5 100 Z " /><path fill="rgb(32,13,11)" stroke="rgb(32,13,11)" stroke-width="1" opacity="0.996078431372549" d="M 63.5 107 L 64 109.5 L 63 109.5 L 63.5 107 Z " /><path fill="rgb(199,113,82)" stroke="rgb(199,113,82)" stroke-width="1" opacity="0.9921568627450981" d="M 31.5 18 L 33 25.5 L 32 25.5 L 31.5 18 Z " /><path fill="rgb(199,113,82)" stroke="rgb(199,113,82)" stroke-width="1" opacity="0.9921568627450981" d="M 41.5 39 Q 46.8 37.8 48 40.5 L 49 48 L 39 47.5 L 40 44.5 L 39 40 L 41.5 39 Z " /><path fill="rgb(199,113,82)" stroke="rgb(199,113,82)" stroke-width="1" opacity="0.9921568627450981" d="M 25 47 L 27 47.5 L 26 48.5 L 26 55 L 34 55.5 L 25 56 L 25 47 Z " /><path fill="rgb(199,113,82)" stroke="rgb(199,113,82)" stroke-width="1" opacity="0.9921568627450981" d="M 33.5 48 L 36 48.5 L 33.5 49 L 33.5 48 Z " /><path fill="rgb(199,113,82)" stroke="rgb(199,113,82)" stroke-width="1" opacity="0.9921568627450981" d="M 50.5 48 L 54 48.5 L 50.5 49 L 50.5 48 Z " /><path fill="rgb(199,113,82)" stroke="rgb(199,113,82)" stroke-width="1" opacity="0.9921568627450981" d="M 61.5 50 L 62 54.5 Q 61 57 56.5 56 L 56.5 55 L 61 55 L 61.5 50 Z " /><path fill="rgb(199,113,82)" stroke="rgb(199,113,82)" stroke-width="1" opacity="0.9921568627450981" d="M 35.5 56 L 48 56.5 L 35.5 57 L 35.5 56 Z " /><path fill="rgb(199,113,82)" stroke="rgb(199,113,82)" stroke-width="1" opacity="0.9921568627450981" d="M 65.5 59 L 67 68.5 L 72.5 74 L 74 72.5 Q 72.8 63.6 75 60 L 83 61 Q 84 67.3 81 70.5 L 82.5 74 L 85 72.5 Q 81.8 78.4 72 77 Q 69.9 80.3 71 88.5 L 73 88.5 Q 72.2 96.3 76 99.5 L 73 104 L 65.5 105 L 62 104 L 63 114 L 54.5 114 L 53.5 115 L 47 114 L 46.5 112 L 45.5 115 L 45 109.5 L 46 107.5 L 44 107.5 L 45 105 L 61 103 Q 61.9 96.8 60 94 L 39 93.5 L 54.5 93 L 61 91 Q 63.2 85.7 62 76 L 60 76 L 60 71 L 57.5 71 L 51 70 L 51 64 L 56.5 64 Q 58.3 67.2 63.5 67 L 65 65.5 L 63 61.5 Q 62.3 59.3 64.5 60 L 65.5 59 Z M 62 89 L 63 94 L 64 91 Q 65 88 62 89 Z " /><path fill="rgb(199,113,82)" stroke="rgb(199,113,82)" stroke-width="1" opacity="0.9921568627450981" d="M 21 64 L 24 64.5 L 22 67.5 L 22.5 69 L 21 69 L 21 64 Z " /><path fill="rgb(199,113,82)" stroke="rgb(199,113,82)" stroke-width="1" opacity="0.9921568627450981" d="M 33.5 67 L 34 69.5 L 33 69.5 L 33.5 67 Z " /><path fill="rgb(199,113,82)" stroke="rgb(199,113,82)" stroke-width="1" opacity="0.9921568627450981" d="M 23.5 75 Q 27.9 73.5 27 76.5 L 28 78.5 L 27 80.5 Q 29.5 82 28 87.5 L 26.5 87 L 22 85.5 L 23.5 77 L 26.5 78 L 25.5 76 Q 22.5 76.5 23.5 75 Z " /><path fill="rgb(199,113,82)" stroke="rgb(199,113,82)" stroke-width="1" opacity="0.9921568627450981" d="M 46.5 75 L 52 75.5 L 46.5 76 L 46.5 75 Z " /><path fill="rgb(199,113,82)" stroke="rgb(199,113,82)" stroke-width="1" opacity="0.9921568627450981" d="M 20.5 76 L 21 78.5 L 20 78.5 L 20.5 76 Z " /><path fill="rgb(199,113,82)" stroke="rgb(199,113,82)" stroke-width="1" opacity="0.9921568627450981" d="M 42.5 81 Q 45 82.2 44 86 L 32 85 L 33.5 82 L 41.5 82 L 42.5 81 Z M 43 82 L 42 85 L 43 85 L 43 82 Z " /></svg>